# Blender 3.5.1
# www.blender.org
mtllib exit_sign.mtl
o Cube
v 1.000000 0.086315 -1.000000
v 1.000000 -1.000000 -1.000000
v 1.000000 0.086315 -0.442432
v 1.000000 -1.000000 -0.442432
v -1.000000 0.086315 -1.000000
v -1.000000 -1.000000 -1.000000
v -1.000000 0.086315 -0.442432
v -1.000000 -1.000000 -0.442432
vn -0.0000 1.0000 -0.0000
vn -0.0000 -0.0000 1.0000
vn -1.0000 -0.0000 -0.0000
vn -0.0000 -1.0000 -0.0000
vn 1.0000 -0.0000 -0.0000
vn -0.0000 -0.0000 -1.0000
vt 0.008507 -0.002275
vt 0.945584 0.660885
vt 0.006838 0.667311
vt 0.616398 0.168829
vt 0.615174 0.660061
vt 0.007661 0.336901
vt 0.008084 0.167313
vt 0.614328 0.999238
vt 0.945161 0.830473
vt 0.615152 0.668827
vt 0.615975 0.338417
vt 0.614751 0.829649
vt 0.616821 -0.000759
vt 0.944738 1.000061
vt 0.615152 0.668827
vt 0.614328 0.999238
vt 0.008084 0.167313
vt 0.615975 0.338417
vt 0.616398 0.168829
vt 0.006014 0.997721
vt 0.945161 0.830473
vt 0.006838 0.667311
vt 0.614751 0.829649
vt 0.007661 0.336901
s 0
usemtl exit_sign
f 1/1/1 5/13/1 7/19/1 3/7/1
f 4/10/2 3/8/2 7/20/2 8/22/2
f 8/23/3 7/21/3 5/14/3 6/16/3
f 6/17/4 2/4/4 4/11/4 8/24/4
f 2/5/5 1/2/5 3/9/5 4/12/5
f 6/18/6 5/15/6 1/3/6 2/6/6
