# Blender 4.2.0
# www.blender.org
mtllib toilet.mtl
o Cube
v 1.451303 1.369594 -1.322951
v 1.000000 -1.000000 -1.000000
v 1.451303 1.369594 1.322951
v 1.000000 -1.000000 1.000000
v -1.603486 1.239251 -1.568220
v -1.000000 -1.000000 -1.000000
v -1.603486 1.239251 1.568220
v -1.000000 -1.000000 1.000000
v 1.451303 0.585483 -1.322951
v 1.451303 -0.198627 -1.322951
v 1.000000 -0.500000 -1.000000
v -1.000000 -0.500000 1.000000
v -1.334459 0.082483 1.568220
v -1.603486 0.455141 1.568220
v 1.451303 0.585483 1.322951
v 1.451303 -0.198627 1.322951
v 1.000000 -0.500000 1.000000
v -1.603486 0.455141 -1.568220
v -1.334459 0.082483 -1.568220
v -1.000000 -0.500000 -1.000000
v 0.631022 -1.000000 -1.000000
v 0.131022 -1.000000 -1.000000
v -0.368978 -1.000000 -1.000000
v 0.954316 1.239251 1.568220
v 0.170206 1.239251 1.568220
v -0.613904 1.239251 1.568220
v -0.368978 -1.000000 1.000000
v 0.131022 -1.000000 1.000000
v 0.631022 -1.000000 1.000000
v -0.613904 1.239251 -1.568220
v 0.170206 1.239251 -1.568220
v 0.954316 1.239251 -1.568220
v -0.368978 -0.500000 -1.000000
v 0.131022 -0.500000 -1.000000
v 0.631022 -0.500000 -1.000000
v -0.613904 -0.328970 -1.568220
v 0.170206 -0.328970 -1.568220
v 0.954316 -0.328970 -1.568220
v -0.613904 0.455141 -1.568220
v 0.170206 0.455141 -1.568220
v 0.954316 0.455141 -1.568220
v 0.631022 -0.500000 1.000000
v 0.131022 -0.500000 1.000000
v -0.368978 -0.500000 1.000000
v 0.954316 -0.328970 1.568220
v 0.170206 -0.328970 1.568220
v -0.613904 -0.328970 1.568220
v 0.954316 0.455141 1.568220
v 0.170206 0.455141 1.568220
v -0.613904 0.455141 1.568220
v -1.000000 -1.000000 -0.500000
v -1.000000 -1.000000 0.000000
v -1.000000 -1.000000 0.500000
v 1.532955 1.239251 -0.784110
v 1.532955 1.239251 0.000000
v 1.532955 1.239251 0.784110
v -1.603486 1.239251 0.784110
v -1.603486 1.239251 0.000000
v -1.603486 1.239251 -0.784110
v 1.000000 -1.000000 0.500000
v 1.000000 -1.000000 0.000000
v 1.000000 -1.000000 -0.500000
v 1.000000 -0.500000 -0.500000
v 1.000000 -0.500000 0.000000
v 1.000000 -0.500000 0.500000
v 1.532955 -0.328970 -0.784110
v 1.532955 -0.328970 0.000000
v 1.532955 -0.328970 0.784110
v 1.532955 0.455141 -0.784110
v 1.532955 0.455141 0.000000
v 1.532955 0.455141 0.784110
v -1.000000 -0.500000 0.500000
v -1.000000 -0.500000 0.000000
v -1.000000 -0.500000 -0.500000
v -1.334459 0.082483 0.784110
v -1.334459 0.082483 0.000000
v -1.334459 0.082483 -0.784110
v -1.603486 0.455141 0.784110
v -1.603486 0.455141 0.000000
v -1.603486 0.455141 -0.784110
v -0.368978 -1.000000 -0.500000
v -0.368978 -1.000000 0.000000
v -0.368978 -1.000000 0.500000
v 0.131022 -1.000000 -0.500000
v 0.131022 -1.000000 0.000000
v 0.131022 -1.000000 0.500000
v 0.631022 -1.000000 -0.500000
v 0.631022 -1.000000 0.000000
v 0.631022 -1.000000 0.500000
v 0.954316 1.239251 -0.784110
v 0.954316 1.239251 0.000000
v 0.954316 1.239251 0.784110
v 0.170206 1.239251 -0.784110
v 0.170206 1.239251 0.000000
v 0.170206 1.239251 0.784110
v -0.613904 1.239251 -0.784110
v -0.613904 1.239251 0.000000
v -0.613904 1.239251 0.784110
v -2.435147 0.455141 1.568220
v -2.435147 1.239251 1.568220
v -2.435147 1.239251 -0.784110
v -2.435147 1.239251 -1.568220
v -2.435147 0.455141 -1.568220
v -2.435147 0.455141 -0.784110
v -2.435147 1.239251 0.784110
v -2.435147 1.239251 0.000000
v -2.435147 0.455141 0.784110
v -2.435147 0.455141 0.000000
v -1.603486 4.108320 -0.784110
v -1.397592 3.771774 -1.227662
v -1.397592 3.771774 1.227662
v -1.603486 4.108320 0.784110
v -1.603486 4.108320 0.000000
v -2.229253 3.771774 -1.227662
v -2.435147 4.108320 -0.784110
v -2.229253 3.771774 1.227662
v -2.435147 4.108320 0.784110
v -2.435147 4.108320 0.000000
vn -0.0000 1.0000 -0.0000
vn -0.0000 -0.0000 1.0000
vn -0.0000 -1.0000 -0.0000
vn 0.9887 -0.0000 0.1498
vn 0.4426 -0.0000 -0.8967
vn -0.0000 -0.0000 -1.0000
vn 0.2239 -0.9281 -0.2974
vn 1.0000 -0.0000 -0.0000
vn 0.3547 -0.9238 0.1438
vn -1.0000 -0.0000 -0.0000
vn -0.8672 -0.4979 -0.0000
vn -0.8108 -0.5853 -0.0000
vn -0.2620 -0.8605 0.4370
vn 0.4426 -0.0000 0.8967
vn 0.2239 -0.9281 0.2974
vn -0.0000 -0.9576 0.2882
vn -0.2620 -0.8605 -0.4370
vn -0.0000 -0.9576 -0.2882
vn -0.1434 0.9840 -0.1058
vn -0.1434 0.9840 0.1058
vn 0.9887 -0.0000 -0.1498
vn 0.3547 -0.9238 -0.1438
vn 0.3056 -0.9522 -0.0000
vn 0.9828 -0.0487 0.1782
vn -0.0000 0.7966 -0.6045
vn -0.0000 0.7966 0.6045
vn -0.9828 0.0487 0.1782
vn -0.9828 0.0487 -0.1782
vn 0.9828 -0.0487 -0.1782
vn -0.0000 0.1333 -0.9911
vn -0.0000 0.1333 0.9911
vt 0.490756 0.209842
vt 0.568157 0.209842
vt 0.568157 0.271180
vt 0.490756 0.271180
vt 0.686391 0.191186
vt 0.747670 0.188570
vt 0.751013 0.265750
vt 0.689733 0.268366
vt 0.802669 0.587522
vt 0.802669 0.526184
vt 0.867675 0.526184
vt 0.867675 0.587522
vt 0.409546 0.697252
vt 0.380705 0.697252
vt 0.380705 0.658139
vt 0.409546 0.658139
vt 0.267712 0.700291
vt 0.206375 0.700291
vt 0.196218 0.658139
vt 0.257555 0.658139
vt 0.689733 0.363070
vt 0.628454 0.360454
vt 0.619814 0.320022
vt 0.681093 0.322638
vt 0.935059 0.361288
vt 0.974171 0.361264
vt 0.974171 0.390068
vt 0.935059 0.390092
vt 0.372950 0.562033
vt 0.347146 0.606483
vt 0.307892 0.587296
vt 0.344109 0.562033
vt 0.751013 0.365686
vt 0.742373 0.325254
vt 0.974172 0.064941
vt 0.935059 0.064941
vt 0.935059 0.025828
vt 0.974172 0.025828
vt 0.344109 0.444694
vt 0.301917 0.422469
vt 0.307892 0.380317
vt 0.344109 0.405580
vt 0.329049 0.700291
vt 0.318892 0.658139
vt 0.144562 0.741702
vt 0.105740 0.741702
vt 0.105740 0.702589
vt 0.144562 0.702589
vt 0.057327 0.719477
vt 0.057327 0.658139
vt 0.025828 0.719477
vt 0.025828 0.658139
vt 0.974171 0.491034
vt 0.935059 0.491010
vt 0.935059 0.441749
vt 0.974171 0.441773
vt 0.451114 0.405580
vt 0.469724 0.361131
vt 0.524761 0.361131
vt 0.500437 0.405581
vt 0.625111 0.193802
vt 0.659701 0.248627
vt 0.628454 0.031060
vt 0.689733 0.028444
vt 0.681093 0.068877
vt 0.619814 0.071493
vt 0.683742 0.130031
vt 0.622463 0.132647
vt 0.347146 0.361131
vt 0.372950 0.405580
vt 0.408435 0.361131
vt 0.412032 0.405580
vt 0.974171 0.597904
vt 0.935059 0.597880
vt 0.935059 0.569076
vt 0.974171 0.569100
vt 0.935059 0.530043
vt 0.974171 0.530067
vt 0.711126 0.542821
vt 0.681093 0.562559
vt 0.684436 0.485379
vt 0.745715 0.487995
vt 0.687085 0.424225
vt 0.748364 0.426841
vt 0.500437 0.562033
vt 0.524761 0.606483
vt 0.469724 0.606483
vt 0.451114 0.562033
vt 0.408435 0.606483
vt 0.412032 0.562033
vt 0.935059 0.233962
vt 0.974171 0.233937
vt 0.974171 0.283198
vt 0.935059 0.283223
vt 0.974171 0.322231
vt 0.935059 0.322255
vt 0.619814 0.559943
vt 0.623157 0.482764
vt 0.625805 0.421609
vt 0.537033 0.697252
vt 0.487710 0.697252
vt 0.487710 0.658139
vt 0.537033 0.658139
vt 0.448628 0.697252
vt 0.448628 0.658139
vt 0.751013 0.025828
vt 0.742373 0.066261
vt 0.745021 0.127415
vt 0.322837 0.209842
vt 0.368096 0.209842
vt 0.368096 0.271180
vt 0.329061 0.251994
vt 0.429426 0.209842
vt 0.429426 0.271180
vt 0.429426 0.025828
vt 0.490756 0.025828
vt 0.490756 0.087166
vt 0.429426 0.087166
vt 0.490756 0.148504
vt 0.429426 0.148504
vt 0.368096 0.025828
vt 0.368096 0.087166
vt 0.368096 0.148504
vt 0.329061 0.045015
vt 0.322837 0.087166
vt 0.322837 0.148504
vt 0.448628 0.814592
vt 0.409546 0.814592
vt 0.409546 0.775479
vt 0.448628 0.775479
vt 0.409546 0.736365
vt 0.448628 0.736365
vt 0.487710 0.814592
vt 0.487710 0.775479
vt 0.487710 0.736365
vt 0.537033 0.814592
vt 0.537033 0.775479
vt 0.537033 0.736365
vt 0.057327 0.903491
vt 0.025828 0.903491
vt 0.025828 0.842153
vt 0.057327 0.842153
vt 0.025828 0.780815
vt 0.057327 0.780815
vt 0.105740 0.859041
vt 0.105740 0.819928
vt 0.105740 0.780815
vt 0.144562 0.859041
vt 0.144562 0.819928
vt 0.144562 0.780815
vt 0.318892 0.865118
vt 0.257555 0.865118
vt 0.267712 0.822967
vt 0.329049 0.822967
vt 0.267712 0.761629
vt 0.329049 0.761629
vt 0.301917 0.545145
vt 0.344109 0.522920
vt 0.301917 0.483807
vt 0.344109 0.483807
vt 0.974172 0.182281
vt 0.935059 0.182281
vt 0.935059 0.143168
vt 0.974172 0.143168
vt 0.935059 0.104055
vt 0.974172 0.104055
vt 0.196218 0.865118
vt 0.206375 0.822967
vt 0.206375 0.761629
vt 0.380705 0.814592
vt 0.380705 0.775479
vt 0.380705 0.736365
vt 0.250261 0.545145
vt 0.250261 0.606483
vt 0.052056 0.579842
vt 0.025828 0.545145
vt 0.802669 0.403508
vt 0.802669 0.342170
vt 0.867675 0.342170
vt 0.867675 0.403508
vt 0.867444 0.224927
vt 0.871634 0.286118
vt 0.806859 0.290513
vt 0.802669 0.229321
vt 0.568157 0.025828
vt 0.568157 0.087166
vt 0.568157 0.148504
vt 0.209842 0.309474
vt 0.209842 0.248593
vt 0.271180 0.248593
vt 0.271180 0.309474
vt 0.025828 0.309474
vt 0.025828 0.248593
vt 0.087166 0.248593
vt 0.087166 0.309474
vt 0.148504 0.248593
vt 0.148504 0.309474
vt 0.802669 0.464846
vt 0.867675 0.464846
vt 0.250261 0.483807
vt 0.025828 0.483807
vt 0.250261 0.422469
vt 0.025828 0.422469
vt 0.588690 0.918429
vt 0.592880 0.857238
vt 0.657655 0.861632
vt 0.653465 0.922824
vt 0.148504 0.025828
vt 0.209842 0.025828
vt 0.818353 0.796552
vt 0.818353 0.735214
vt 0.883403 0.735214
vt 0.883403 0.796552
vt 0.818353 0.673876
vt 0.883403 0.673876
vt 0.802669 0.639178
vt 0.867719 0.639178
vt 0.802669 0.831249
vt 0.867719 0.831249
vt 0.052469 0.053921
vt 0.087166 0.025828
vt 0.244540 0.053921
vt 0.250261 0.361131
vt 0.052056 0.387771
vt 0.806859 0.030223
vt 0.871634 0.025828
vt 0.588690 0.658139
vt 0.653465 0.662534
s 0
usemtl Material
f 98/1/1 57/2/1 7/3/1 26/4/1
f 50/5/2 26/6/2 7/7/2 14/8/2
f 18/9/3 80/10/3 104/11/3 103/12/3
f 89/13/3 60/14/3 4/15/3 29/16/3
f 71/17/4 56/18/4 3/19/4 15/20/4
f 41/21/5 32/22/5 1/23/5 9/24/5
f 21/25/6 35/26/6 11/27/6 2/28/6
f 35/29/7 38/30/7 10/31/7 11/32/7
f 38/33/5 41/21/5 9/24/5 10/34/5
f 60/35/8 65/36/8 17/37/8 4/38/8
f 65/39/9 68/40/9 16/41/9 17/42/9
f 68/43/4 71/17/4 15/20/4 16/44/4
f 51/45/10 74/46/10 20/47/10 6/48/10
f 74/46/11 77/49/11 19/50/11 20/47/11
f 77/49/12 80/51/12 18/52/12 19/50/12
f 27/53/2 44/54/2 12/55/2 8/56/2
f 44/57/13 47/58/13 13/59/13 12/60/13
f 47/61/2 50/5/2 14/8/2 13/62/2
f 16/63/14 15/64/14 48/65/14 45/66/14
f 45/66/2 48/65/2 49/67/2 46/68/2
f 46/68/2 49/67/2 50/5/2 47/61/2
f 17/42/15 16/41/15 45/69/15 42/70/15
f 42/70/16 45/69/16 46/71/16 43/72/16
f 43/72/16 46/71/16 47/58/16 44/57/16
f 4/73/2 17/74/2 42/75/2 29/76/2
f 29/76/2 42/75/2 43/77/2 28/78/2
f 28/78/2 43/77/2 44/54/2 27/53/2
f 19/79/6 18/80/6 39/81/6 36/82/6
f 36/82/6 39/81/6 40/83/6 37/84/6
f 37/84/6 40/83/6 41/21/6 38/33/6
f 20/85/17 19/86/17 36/87/17 33/88/17
f 33/88/18 36/87/18 37/89/18 34/90/18
f 34/90/18 37/89/18 38/30/18 35/29/18
f 6/91/6 20/92/6 33/93/6 23/94/6
f 23/94/6 33/93/6 34/95/6 22/96/6
f 22/96/6 34/95/6 35/26/6 21/25/6
f 18/80/6 5/97/6 30/98/6 39/81/6
f 39/81/6 30/98/6 31/99/6 40/83/6
f 40/83/6 31/99/6 32/22/6 41/21/6
f 53/100/3 83/101/3 27/102/3 8/103/3
f 83/101/3 86/104/3 28/105/3 27/102/3
f 86/104/3 89/13/3 29/16/3 28/105/3
f 15/64/14 3/106/14 24/107/14 48/65/14
f 48/65/2 24/107/2 25/108/2 49/67/2
f 49/67/2 25/108/2 26/6/2 50/5/2
f 56/109/19 92/110/19 24/111/19 3/112/19
f 92/110/1 95/113/1 25/114/1 24/111/1
f 95/113/1 98/1/1 26/4/1 25/114/1
f 31/115/1 30/116/1 96/117/1 93/118/1
f 93/118/1 96/117/1 97/119/1 94/120/1
f 94/120/1 97/119/1 98/1/1 95/113/1
f 32/121/1 31/115/1 93/118/1 90/122/1
f 90/122/1 93/118/1 94/120/1 91/123/1
f 91/123/1 94/120/1 95/113/1 92/110/1
f 1/124/20 32/121/20 90/122/20 54/125/20
f 54/125/1 90/122/1 91/123/1 55/126/1
f 55/126/1 91/123/1 92/110/1 56/109/1
f 22/127/3 21/128/3 87/129/3 84/130/3
f 84/130/3 87/129/3 88/131/3 85/132/3
f 85/132/3 88/131/3 89/13/3 86/104/3
f 23/133/3 22/127/3 84/130/3 81/134/3
f 81/134/3 84/130/3 85/132/3 82/135/3
f 82/135/3 85/132/3 86/104/3 83/101/3
f 6/136/3 23/133/3 81/134/3 51/137/3
f 51/137/3 81/134/3 82/135/3 52/138/3
f 52/138/3 82/135/3 83/101/3 53/100/3
f 13/139/12 14/140/12 78/141/12 75/142/12
f 75/142/12 78/141/12 79/143/12 76/144/12
f 76/144/12 79/143/12 80/51/12 77/49/12
f 12/145/11 13/139/11 75/142/11 72/146/11
f 72/146/11 75/142/11 76/144/11 73/147/11
f 73/147/11 76/144/11 77/49/11 74/46/11
f 8/148/10 12/145/10 72/146/10 53/149/10
f 53/149/10 72/146/10 73/147/10 52/150/10
f 52/150/10 73/147/10 74/46/10 51/45/10
f 10/151/21 9/152/21 69/153/21 66/154/21
f 66/154/8 69/153/8 70/155/8 67/156/8
f 67/156/8 70/155/8 71/17/8 68/43/8
f 11/32/22 10/31/22 66/157/22 63/158/22
f 63/158/23 66/157/23 67/159/23 64/160/23
f 64/160/23 67/159/23 68/40/23 65/39/23
f 2/161/8 11/162/8 63/163/8 62/164/8
f 62/164/8 63/163/8 64/165/8 61/166/8
f 61/166/8 64/165/8 65/36/8 60/35/8
f 9/152/21 1/167/21 54/168/21 69/153/21
f 69/153/8 54/168/8 55/169/8 70/155/8
f 70/155/8 55/169/8 56/18/8 71/17/8
f 21/128/3 2/170/3 62/171/3 87/129/3
f 87/129/3 62/171/3 61/172/3 88/131/3
f 88/131/3 61/172/3 60/14/3 89/13/3
f 59/173/24 5/174/24 110/175/24 109/176/24
f 78/177/3 14/178/3 99/179/3 107/180/3
f 5/181/6 18/182/6 103/183/6 102/184/6
f 30/116/1 5/185/1 59/186/1 96/117/1
f 96/117/1 59/186/1 58/187/1 97/119/1
f 97/119/1 58/187/1 57/2/1 98/1/1
f 104/188/10 101/189/10 102/190/10 103/191/10
f 99/192/10 100/193/10 105/194/10 107/195/10
f 107/195/10 105/194/10 106/196/10 108/197/10
f 108/197/10 106/196/10 101/189/10 104/188/10
f 79/198/3 78/177/3 107/180/3 108/199/3
f 58/200/8 59/173/8 109/176/8 113/201/8
f 57/202/8 58/200/8 113/201/8 112/203/8
f 80/10/3 79/198/3 108/199/3 104/11/3
f 14/204/2 7/205/2 100/206/2 99/207/2
f 101/189/10 106/196/10 118/208/10 115/209/10
f 112/210/1 113/211/1 118/212/1 117/213/1
f 113/211/1 109/214/1 115/215/1 118/212/1
f 109/214/25 110/216/25 114/217/25 115/215/25
f 111/218/26 112/210/26 117/213/26 116/219/26
f 105/194/27 100/193/27 116/220/27 117/221/27
f 102/190/28 101/189/28 115/209/28 114/222/28
f 106/196/10 105/194/10 117/221/10 118/208/10
f 7/223/29 57/202/29 112/203/29 111/224/29
f 5/181/30 102/184/30 114/225/30 110/226/30
f 100/206/31 7/205/31 111/227/31 116/228/31
o Cube.001
v -3.668442 -0.938817 3.703150
v -3.668442 12.204781 3.703150
v -3.668442 -0.938817 -3.703149
v -3.668442 12.204781 -3.703149
v 6.226520 -0.938817 3.703150
v 6.226520 12.204781 3.703150
v 6.226520 -0.938817 -3.703149
v 6.226520 12.204781 -3.703149
v -3.668442 -0.938817 2.969607
v -3.668442 12.204781 2.969607
v 6.226520 -0.938817 2.969607
v 6.226520 12.204781 2.969607
v -3.668442 12.204781 -3.128098
v 6.226520 -0.938817 -3.128098
v -3.668442 -0.938817 -3.128098
v 6.226520 12.204781 -3.128098
v -2.962456 -0.938817 -3.703149
v -2.962456 12.204781 -3.703149
v -2.962456 -0.938817 3.703150
v -2.962456 12.204781 3.703150
v -2.962456 12.204781 2.969607
v -2.962456 -0.938817 2.969607
v -2.962456 -0.938817 -3.128098
v -2.962456 12.204781 -3.128098
v 9.239710 12.204781 1.156941
v 9.239710 -0.938817 1.156941
v 8.748108 -0.938817 1.455287
v 8.748108 12.204781 1.455287
vn -1.0000 -0.0000 -0.0000
vn -0.0000 -0.0000 -1.0000
vn 1.0000 -0.0000 -0.0000
vn -0.0000 -0.0000 1.0000
vn -0.0000 -1.0000 -0.0000
vn -0.0000 1.0000 -0.0000
vn 0.5188 -0.0000 0.8549
vn 0.8499 -0.0000 -0.5269
vn -0.8762 -0.0000 0.4820
vt 0.764450 0.244375
vt 0.764450 0.024665
vt 0.781430 0.024665
vt 0.781430 0.244375
vt 0.513416 0.228700
vt 0.293706 0.228700
vt 0.293706 0.024665
vt 0.513416 0.024665
vt 0.830760 0.244375
vt 0.830760 0.024665
vt 0.852296 0.024665
vt 0.852296 0.244375
vt 0.513416 0.309381
vt 0.293706 0.309381
vt 0.293706 0.293706
vt 0.513416 0.293706
vt 0.046426 0.376287
vt 0.046426 0.580322
vt 0.024665 0.580322
vt 0.024665 0.376287
vt 0.046426 0.295605
vt 0.046426 0.311281
vt 0.024665 0.311281
vt 0.024665 0.295605
vt 0.227316 0.295605
vt 0.227316 0.311281
vt 0.205556 0.833686
vt 0.024665 0.833686
vt 0.024665 0.629652
vt 0.205556 0.629652
vt 0.766780 0.293705
vt 0.766780 0.513416
vt 0.562746 0.513416
vt 0.562746 0.293705
vt 0.562746 0.244375
vt 0.562746 0.024665
vt 0.584405 0.024665
vt 0.584405 0.244375
vt 0.975335 0.171710
vt 0.968839 0.187484
vt 0.961872 0.028693
vt 0.975335 0.024665
vt 0.244375 0.376287
vt 0.244375 0.580322
vt 0.227316 0.580322
vt 0.227316 0.376287
vt 0.244375 0.295605
vt 0.244375 0.311281
vt 0.244375 0.091571
vt 0.227316 0.091571
vt 0.244375 0.360611
vt 0.227316 0.360611
vt 0.046426 0.360611
vt 0.726094 0.562746
vt 0.726094 0.782456
vt 0.547070 0.782456
vt 0.547070 0.562746
vt 0.046426 0.091571
vt 0.024665 0.091571
vt 0.024665 0.360611
vt 0.513416 0.513416
vt 0.293706 0.513416
vt 0.513416 0.244375
vt 0.293706 0.244375
vt 0.293705 0.782456
vt 0.293705 0.562746
vt 0.497740 0.562746
vt 0.497740 0.782456
vt 0.901626 0.244375
vt 0.901626 0.024665
vt 0.912542 0.024665
vt 0.912542 0.244375
vt 0.091349 0.035581
vt 0.100199 0.024665
vt 0.775424 0.782456
vt 0.775424 0.562746
vt 0.927700 0.562746
vt 0.927700 0.782456
vt 0.956850 0.293706
vt 0.956850 0.513416
vt 0.816111 0.513416
vt 0.816111 0.293706
s 0
usemtl stall
f 133/229/32 131/230/32 122/231/32 121/232/32
f 135/233/33 136/234/33 126/235/33 125/236/33
f 129/237/34 130/238/34 124/239/34 123/240/34
f 137/241/35 138/242/35 120/243/35 119/244/35
f 140/245/36 129/246/36 123/247/36 137/248/36
f 139/249/37 128/250/37 120/251/37 138/252/37
f 142/253/37 131/254/37 128/250/37 139/249/37
f 141/255/37 140/256/37 129/257/37 132/258/37
f 130/259/33 129/260/33 140/261/33 139/262/33
f 119/263/32 120/264/32 128/265/32 127/266/32
f 132/267/36 125/268/36 144/269/36 145/270/36
f 135/271/36 125/272/36 132/273/36 141/274/36
f 136/275/37 122/276/37 131/254/37 142/253/37
f 127/266/32 128/265/32 131/230/32 133/229/32
f 126/277/37 136/275/37 142/253/37 134/278/37
f 121/279/36 135/271/36 141/274/36 133/280/36
f 133/280/36 141/274/36 140/245/36 127/281/36
f 139/282/34 140/283/34 141/284/34 142/285/34
f 130/286/37 139/249/37 138/252/37 124/287/37
f 127/281/36 140/245/36 137/248/36 119/288/36
f 123/289/35 124/290/35 138/242/35 137/241/35
f 121/291/33 122/292/33 136/234/33 135/233/33
f 132/293/35 134/294/35 142/295/35 141/296/35
f 144/297/38 143/298/38 146/299/38 145/300/38
f 126/277/37 134/278/37 146/301/37 143/302/37
f 125/303/39 126/304/39 143/305/39 144/306/39
f 134/307/40 132/308/40 145/309/40 146/310/40
