# Blender 4.2.0
# www.blender.org
mtllib bush.mtl
o Plane.005
v -0.779462 0.422981 0.802320
v 0.065018 1.137678 0.294630
v -1.455940 1.631392 1.378214
v -0.611459 2.346089 0.870525
v -0.723352 -0.915089 0.241370
v -0.188313 -0.444256 -0.251604
v -1.190135 -0.020090 0.589558
v -0.655097 0.450743 0.096584
v -1.009587 -1.064069 0.888750
v 0.446626 -0.634273 -0.267524
v -1.519730 1.222091 1.096058
v -0.063517 1.651887 -0.060216
v -1.167588 -0.510290 -0.613467
v 0.348288 -1.304109 0.421894
v -0.348287 1.304109 -0.421895
v 1.167588 0.510291 0.613466
v -0.447460 -0.902919 -0.408692
v 1.552540 -0.902919 -0.408692
v -0.447460 1.097080 -0.408692
v 1.552540 1.097080 -0.408693
v 0.025799 -0.452599 0.641461
v 1.482012 -0.022803 -0.514813
v -0.484344 1.833561 0.848769
v 0.971869 2.263357 -0.307505
v -0.289280 0.047506 0.320758
v -0.209697 -0.946862 -1.306248
v 0.660114 1.903541 -0.767146
v 0.739698 0.909173 -2.394152
vn 0.5615 -0.0783 0.8238
vn 0.6540 0.0474 0.7550
vn 0.6089 0.0642 0.7907
vn -0.5077 0.1395 0.8502
vn -0.0000 -0.0000 1.0000
vn 0.9139 -0.3249 0.2433
vt 0.000000 0.000000
vt 1.000000 0.000000
vt 1.000000 1.000000
vt 0.000000 1.000000
s 0
usemtl Material.001
f 1/1/1 2/2/1 4/3/1 3/4/1
f 5/1/2 6/2/2 8/3/2 7/4/2
f 9/1/3 10/2/3 12/3/3 11/4/3
f 13/1/4 14/2/4 16/3/4 15/4/4
f 17/1/5 18/2/5 20/3/5 19/4/5
f 21/1/3 22/2/3 24/3/3 23/4/3
f 25/1/6 26/2/6 28/3/6 27/4/6
