{"accessors":[{"bufferView":0,"byteOffset":0,"componentType":5126,"count":1950,"max":[0.5,1,0.5],"min":[-0.5,-1,-0.5],"normalized":false,"type":"VEC3"},{"bufferView":1,"byteOffset":0,"componentType":5126,"count":1950,"max":[1,0,1,1],"min":[-1,-0.00002157951531,-1,1],"normalized":false,"type":"VEC4"},{"bufferView":2,"byteOffset":0,"componentType":5126,"count":1950,"max":[1,1,1],"min":[-1,-1,-1],"normalized":false,"type":"VEC3"},{"bufferView":3,"byteOffset":0,"componentType":5126,"count":1950,"max":[1,1],"min":[0,0],"normalized":false,"type":"VEC2"},{"bufferView":4,"byteOffset":0,"componentType":5123,"count":10368,"max":[1949],"min":[0],"normalized":false,"type":"SCALAR"}],"asset":{"generator":"Redot Engine v4.4.dev.custom_build@5e7e5fc60f1e75cb272ebf650fd37c51e0fa16fa","version":"2.0"},"bufferViews":[{"buffer":0,"byteLength":23400,"byteOffset":0,"byteStride":12,"target":34962},{"buffer":0,"byteLength":31200,"byteOffset":23400,"byteStride":16,"target":34962},{"buffer":0,"byteLength":23400,"byteOffset":54600,"byteStride":12,"target":34962},{"buffer":0,"byteLength":15600,"byteOffset":78000,"byteStride":8,"target":34962},{"buffer":0,"byteLength":20736,"byteOffset":93600,"target":34963}],"buffers":[{"byteLength":114336,"uri":"Player_size0.bin"}],"cameras":[{"perspective":{"yfov":1.30899691581726,"zfar":4000,"znear":0.0500000007450581},"type":"perspective"}],"extensions":{"OMI_physics_shape":{"shapes":[{"capsule":{"height":2,"radius":0.5},"type":"capsule"}]}},"extensionsUsed":["GODOT_single_root","OMI_physics_body","OMI_physics_shape"],"materials":[{"extensions":{},"pbrMetallicRoughness":{"baseColorFactor":[0.123399145901203,0.119800075888634,0.99999988079071,1],"metallicFactor":0,"roughnessFactor":1}}],"meshes":[{"extras":{"targetNames":[]},"primitives":[{"attributes":{"NORMAL":2,"POSITION":0,"TANGENT":1,"TEXCOORD_0":3},"indices":4,"material":0,"mode":4}]}],"nodes":[{"children":[1,3,5,6],"extensions":{"OMI_physics_body":{"motion":{"type":"kinematic"}}},"name":"Player"},{"children":[2],"extensions":{"OMI_physics_body":{"collider":{"shape":0}}},"name":"body"},{"mesh":0,"name":"MeshInstance3D"},{"children":[4],"name":"rotation_helper","translation":[0,0.5,0]},{"camera":0,"name":"Camera3D"},{"name":"AudioListener3D"},{"name":"AudioStreamPlayer3D"}],"scene":0,"scenes":[{"nodes":[0]}]}